<svg xmlns="http://www.w3.org/2000/svg" viewBox="0 0 179 87"><defs><style>.cls-1{fill:#fff;}</style></defs><title>Asset 1</title><g id="Layer_2" data-name="Layer 2"><g id="Layer_1-2" data-name="Layer 1"><path class="cls-1" d="M0,0V87H179V0ZM65.67,54.8q0,5.58-2.55,7.86T55,64.94H44.85v-9.6h4.38a3.49,3.49,0,0,0,2.58-.72,2.91,2.91,0,0,0,.66-2V24.92h13.2ZM94.29,64.94H69.09V55h25.2Zm0-21.66-25.2,10.2v-10l9.84-4-9.84-4v-10l25.2,10.2Zm36.36,21.66H117.81V50.12h-7.14V64.94H97.89v-40h12.78V38.54h7.14V24.92h12.84Z"/></g></g></svg>